<?xml version="1.0" encoding="utf-8"?>
<!-- Generator: Adobe Illustrator 24.1.2, SVG Export Plug-In . SVG Version: 6.00 Build 0)  -->
<svg version="1.1" id="Capa_1" xmlns="http://www.w3.org/2000/svg" xmlns:xlink="http://www.w3.org/1999/xlink" x="0px" y="0px"
	 viewBox="0 0 431.1 572.6" style="enable-background:new 0 0 431.1 572.6;" xml:space="preserve">
<style type="text/css">
	.st0{fill:#0211DE;}
	.st1{fill:none;stroke:#FFFFFF;stroke-width:16;stroke-miterlimit:10;}
	.st2{fill:none;stroke:#FFFFFF;stroke-width:16;stroke-linecap:round;stroke-linejoin:round;stroke-miterlimit:10;}
</style>
<g>
	
		<image style="overflow:visible;opacity:0.75;" width="148" height="66" xlink:href="D4DDB1F.png"  transform="matrix(1 0 0 1 222.1489 16.7)">
	</image>
	<g>
		<path class="st0" d="M238.7,60V49.8c0-9.1,7.4-16.4,16.4-16.4h68c9.1,0,16.4,7.4,16.4,16.4V60"/>
		<path class="st1" d="M238.7,60V49.8c0-9.1,7.4-16.4,16.4-16.4h68c9.1,0,16.4,7.4,16.4,16.4V60"/>
	</g>
</g>
<g>
	
		<image style="overflow:visible;opacity:0.75;" width="47" height="383" xlink:href="D4DDB14.png"  transform="matrix(1 0 0 1 357.1489 147)">
	</image>
	<g>
		<line class="st2" x1="373.5" y1="499.4" x2="373.5" y2="163.2"/>
	</g>
</g>
<g>
	
		<image style="overflow:visible;opacity:0.75;" width="187" height="241" xlink:href="D4DDB15.png"  transform="matrix(1 0 0 1 130.1489 169)">
	</image>
	<g>
		<path class="st0" d="M286.2,306.8c0-40.1-69.7-116.9-69.7-116.9s-69.7,76.8-69.7,116.9s31.2,72.6,69.7,72.6
			S286.2,346.9,286.2,306.8z"/>
		<path class="st1" d="M286.2,306.8c0-40.1-69.7-116.9-69.7-116.9s-69.7,76.8-69.7,116.9s31.2,72.6,69.7,72.6
			S286.2,346.9,286.2,306.8z"/>
	</g>
</g>
<g>
	
		<image style="overflow:visible;opacity:0.75;" width="366" height="446" xlink:href="D4DDB16.png"  transform="matrix(1 0 0 1 38.1489 84)">
	</image>
	<g>
		<polygon class="st2" points="54.6,499.4 54.6,163.2 54.6,163.3 54.6,100.6 373.5,100.6 373.5,163.3 373.5,499.4 373.5,436.7 
			54.6,436.7 54.6,499.4 223.1,499.4 373.5,499.4 		"/>
	</g>
</g>
<g>
	
		<image style="overflow:visible;opacity:0.75;" width="399" height="81" xlink:href="D4DDB17.png"  transform="matrix(1 0 0 1 21.1489 50)">
	</image>
	<g>
		<path class="st2" d="M372.4,100.6H54.6c-9.3,0-16.9-7.5-16.9-16.9v-0.3c0-9.3,7.5-16.9,16.9-16.9h317.7c9.3,0,16.9,7.5,16.9,16.9
			v0.3C389.2,93,381.7,100.6,372.4,100.6z"/>
	</g>
</g>
<g>
	
		<image style="overflow:visible;opacity:0.75;" width="399" height="81" xlink:href="D4DDB27.png"  transform="matrix(1 0 0 1 21.1489 483)">
	</image>
	<g>
		<path class="st2" d="M372.3,499.3c9.3,0,16.9,7.5,16.9,16.9v0.3c0,9.4-7.5,16.9-16.8,16.9H54.6c-9.3,0-16.9-7.5-16.9-16.9v-0.3
			c0-9.3,7.5-16.9,16.9-16.9H372.3z"/>
	</g>
</g>
</svg>
