<?xml version="1.0" encoding="utf-8"?>
<!-- Generator: Adobe Illustrator 24.1.2, SVG Export Plug-In . SVG Version: 6.00 Build 0)  -->
<svg version="1.1" id="Capa_1" xmlns="http://www.w3.org/2000/svg" xmlns:xlink="http://www.w3.org/1999/xlink" x="0px" y="0px"
	 viewBox="0 0 542 542" style="enable-background:new 0 0 542 542;" xml:space="preserve">
<style type="text/css">
	.st0{fill:#FFFFFF;}
	.st1{fill:#0211DE;stroke:#0211DE;stroke-width:10;stroke-miterlimit:10;}
</style>
<rect x="453.4" y="271" class="st0" width="39.6" height="214"/>
<rect x="415.5" y="143" class="st0" width="77.5" height="171.1"/>
<rect x="152" y="352" class="st0" width="256.9" height="40"/>
<rect x="179" y="55" class="st0" width="121.7" height="259.1"/>
<rect x="107" y="314.1" class="st0" width="346.4" height="170.9"/>
<g>
	<path class="st1" d="M408,396.1c4.1,0,7.5-3.4,7.5-7.5v-36.3c0-4.1-3.4-7.5-7.5-7.5H150.7c-4.1,0-7.5,3.4-7.5,7.5v36.3
		c0,4.1,3.4,7.5,7.5,7.5H408z M314.5,381.1h-27.6v-21.3h27.6V381.1z M329.5,359.8h27.6v21.3h-27.6V359.8z M271.8,381.1h-27.6v-21.3
		h27.6V381.1z M229.2,381.1h-27.6v-21.3h27.6V381.1z M400.5,381.1h-28.4v-21.3h28.4V381.1z M158.2,359.8h28.4v21.3h-28.4V359.8z"/>
	<path class="st1" d="M519.5,479.1h-21.6v-285h3.2c4.1,0,7.5-3.4,7.5-7.5s-3.4-7.5-7.5-7.5h-3.2v-26.5h3.2c4.1,0,7.5-3.4,7.5-7.5
		s-3.4-7.5-7.5-7.5c-12.3,0-81.3,0-95.2,0c-4.1,0-7.5,3.4-7.5,7.5c0,4.1,3.4,7.5,7.5,7.5h3.2v26.5h-3.2c-4.1,0-7.5,3.4-7.5,7.5
		s3.4,7.5,7.5,7.5h3.2v32.7l-51.6-51.6c-4.7-4.7-11-7.3-17.7-7.3h-33v-59.9h4.4c4.1,0,7.5-3.4,7.5-7.5s-3.4-7.5-7.5-7.5h-4.4V63.9
		h4.4c4.1,0,7.5-3.4,7.5-7.5c0-4.1-3.4-7.5-7.5-7.5c-19,0-120.6,0-141.7,0c-4.1,0-7.5,3.4-7.5,7.5c0,4.1,3.4,7.5,7.5,7.5h4.4v29.1
		h-4.4c-4.1,0-7.5,3.4-7.5,7.5s3.4,7.5,7.5,7.5h4.4v73.7c0,4.1,3.4,7.5,7.5,7.5s7.5-3.4,7.5-7.5v-73.6h103v203.2h-103V171.6
		c0-4.1-3.4-7.5-7.5-7.5s-7.5,3.4-7.5,7.5v139.5h-28.8v-33.9h3.6c4.1,0,7.5-3.4,7.5-7.5s-3.4-7.5-7.5-7.5h-3.6v-2.6
		c0-4.1-3.4-7.5-7.5-7.5c-4.1,0-7.5,3.4-7.5,7.5v2.6h-3.6c-4.1,0-7.5,3.4-7.5,7.5s3.4,7.5,7.5,7.5h3.6v33.9h-16.2
		c-7.5,0-13.5,6.1-13.5,13.5v49.1H85.4c-15.4,0-29.9,6.8-39.8,18.6c-2.7,3.2-2.2,7.9,0.9,10.6c3.2,2.7,7.9,2.2,10.6-0.9
		c7.1-8.4,17.4-13.2,28.3-13.2h14.8v20H85.4c-9.3,0-16.9,7.6-16.9,16.9v53.5h-20v-53.4c0-4.1-3.4-7.5-7.5-7.5s-7.5,3.4-7.5,7.5v53.4
		h-11c-4.1,0-7.5,3.4-7.5,7.5s3.4,7.5,7.5,7.5h497c4.1,0,7.5-3.4,7.5-7.5S523.6,479.1,519.5,479.1L519.5,479.1z M188.7,92.9V63.9
		h103v29.1L188.7,92.9L188.7,92.9z M423.9,152.6h58.9v26.5h-58.9V152.6z M339.6,182.8c2.7,0,5.2,1,7.1,2.9l62.2,62.2v28.3L337.7,205
		c-1.4-1.4-3.3-2.2-5.3-2.2h-25.7v-20L339.6,182.8L339.6,182.8z M83.5,425.6c0-1,0.8-1.9,1.9-1.9h14.8v55.4H83.5V425.6z
		 M115.2,326.1h227.5c4.1,0,7.5-3.4,7.5-7.5s-3.4-7.5-7.5-7.5h-36v-93.3h22.6l79.7,79.7v13.6h-36.3c-4.1,0-7.5,3.4-7.5,7.5
		s3.4,7.5,7.5,7.5h70.9v153H342.1v-52.1c0-4.1-3.4-7.5-7.5-7.5H224c-4.1,0-7.5,3.4-7.5,7.5v52.1H115.2
		C115.2,472.5,115.2,332.8,115.2,326.1L115.2,326.1z M231.5,479.1v-44.6h95.6v44.6H231.5z M458.5,479.1V324.6
		c0-7.5-6.1-13.5-13.5-13.5h-21.1c0-23.3,0-92.7,0-117h58.9v285L458.5,479.1z"/>
</g>
</svg>
