<?xml version="1.0" encoding="utf-8"?>
<!-- Generator: Adobe Illustrator 24.1.2, SVG Export Plug-In . SVG Version: 6.00 Build 0)  -->
<svg version="1.1" id="Capa_1" xmlns="http://www.w3.org/2000/svg" xmlns:xlink="http://www.w3.org/1999/xlink" x="0px" y="0px"
	 viewBox="0 0 639 512" style="enable-background:new 0 0 639 512;" xml:space="preserve">
<style type="text/css">
	.st0{fill:none;stroke:#0211DE;stroke-width:28;stroke-linecap:round;stroke-miterlimit:10;}
	.st1{fill:#FFFFFF;stroke:#0211DE;stroke-width:28;stroke-miterlimit:10;}
</style>
<g>
	<g>
		<path class="st0" d="M428.5,461.6v-80.5c0-61.5-50-111.5-111.5-111.5s-111.5,50-111.5,111.5v80.5"/>
	</g>
</g>
<g>
	<g>
		<path class="st1" d="M317,123.8c-40.2,0-72.9,32.7-72.9,72.9s32.7,72.9,72.9,72.9c40.2,0,72.9-32.7,72.9-72.9
			S357.2,123.8,317,123.8z"/>
	</g>
</g>
<g>
	<g>
		<path class="st0" d="M613,411.6v-80.5c0-61.5-50-111.5-111.5-111.5c-50,0-92.4,33-106.5,78.4"/>
	</g>
</g>
<g>
	<g>
		<path class="st1" d="M501.5,73.8c-40.2,0-72.9,32.7-72.9,72.9s32.7,72.9,72.9,72.9c40.2,0,72.9-32.7,72.9-72.9
			S541.7,73.8,501.5,73.8z"/>
	</g>
</g>
<g>
	<g>
		<path class="st0" d="M242.1,298c-14.1-45.4-56.5-78.4-106.5-78.4c-61.5,0-111.5,50-111.5,111.5v80.5"/>
	</g>
</g>
<g>
	<g>
		<path class="st1" d="M62.7,146.7c0,40.2,32.7,72.9,72.9,72.9c40.2,0,72.9-32.7,72.9-72.9s-32.7-72.9-72.9-72.9
			S62.7,106.5,62.7,146.7z"/>
	</g>
</g>
</svg>
