<?xml version="1.0" encoding="utf-8"?>
<!-- Generator: Adobe Illustrator 24.1.2, SVG Export Plug-In . SVG Version: 6.00 Build 0)  -->
<svg version="1.1" id="Layer_1" xmlns="http://www.w3.org/2000/svg" xmlns:xlink="http://www.w3.org/1999/xlink" x="0px" y="0px"
	 viewBox="0 0 568 490" style="enable-background:new 0 0 568 490;" xml:space="preserve">
<style type="text/css">
	.st0{fill-rule:evenodd;clip-rule:evenodd;fill:url(#SVGID_1_);}
	.st1{fill:#0010DE;}
</style>
<g>
	
		<image style="overflow:visible;opacity:8.000000e-02;" width="226" height="241" xlink:href="73C6E623.png"  transform="matrix(1 0 0 1 160 -20)">
	</image>
	<g>
		<linearGradient id="SVGID_1_" gradientUnits="userSpaceOnUse" x1="270.0573" y1="52.9403" x2="270.0573" y2="345.5093">
			<stop  offset="0" style="stop-color:#FF0000"/>
			<stop  offset="0.5169" style="stop-color:#FBAE17"/>
		</linearGradient>
		<path class="st0" d="M331.6,188.4c1.6,0,5-4.8,5.9-6c2.2-2.8,4-5.9,5.5-9c3.7-7.6,6.1-15.9,7.7-24.1c1.7-8.9,2.9-17.7,1.1-26.7
			c-1.9-9.1-6-17.7-11.3-25.3c-8.9-12.7-21-22.5-32-33.3c-12-11.8-20-24.3-25.4-40.2c-0.4-1.1-4.3-15.6-5.4-15.5
			c-2.2,0.4-3.8,4.8-4.5,6.5c-2.1,4.6-3.7,9.5-5.3,14.3c-4.5,14.4-7.8,28.5-6.7,43.7c1,14.7,4.8,29.2,11.8,42.2
			c-21.9-12.7-25.4-37.4-24-65.7c0-0.4-1.7,1.1-1.8,1.2c-1.7,1.7-3.2,3.6-4.6,5.5c-9.1,12.4-15.5,26.9-17.8,42.1
			c-0.9,5.8-1,11.7-0.2,17.5c0.6,3.7,1.7,7.2,3,10.6c0.7,2,3.6,9.1,3.6,9.1c-0.1-0.2-1.5-0.6-1.8-0.8c-4.8-2.2-9-5.8-12-10.2
			c-4.7-7-5-15.6-5.2-23.8c0,0-6.9,1.4-15,11.7c-5.4,6.9-7.5,15.7-8.9,24.2c-1.5,9.1-1.8,18.5,0.8,27.5c1.3,4.3,3.3,8.6,5.8,12.3
			c1.3,1.9,2.8,3.7,4.5,5.4c1.2,1.2,4.7,5.1,6.4,5.1C205.9,187,331.6,188.4,331.6,188.4z"/>
	</g>
</g>
<g>
	<path class="st1" d="M197.3,230h145.4c6.7,0,11.9-5.2,11.9-12.7v-9.7c0-6.7-5.2-12.7-11.9-12.7H197.3c-6.7,0-11.9,6-11.9,13.4v8.9
		C185.3,224,190.6,230,197.3,230z"/>
	<path class="st1" d="M222.5,237.9c-9.7,8.2-8.2,17.2,0.7,20.9c29.8,23.1,40.3,52.2,52.9,79c6.7-32.1,21.6-64.1,52.2-82
		c3.7-5.2,2.2-12.7-5.2-18.6L222.5,237.9z"/>
	<path class="st1" d="M563.1,416.1c-2.8-14.6-9.8-27.5-20.4-36.8c-5.6-5-12.3-9-19.9-11.7c-11.7-4.2-25.1-3.8-34.5,5.1
		c-15.1,14.2-14.2,44.4,7.4,51.9c8,2.7,16.2,1.6,24.2-0.2c20.1-4.5,18.6,21.6-8.9,20.9c-54.4,3-67.9-66.4-24.6-93.2
		c5.8-3.6-7.7-41.3-10.3-46.8c-5.9-12.8-14.8-23.9-26.2-32.3c-41.3-30.2-108.1-24.1-139.3,18c-5.7,7.8-10.2,16.4-13.5,25.5
		c-1.8,4.8-3.2,9.6-4.5,14.6c-1.8,6.8-1.7,14.1-4.5,20.6c-2.6,6-8.8,9-15.2,7c-2.6-0.8-4.8-2.5-6.5-4.6c-3.2-3.8-4.8-8.8-5.8-13.7
		c-1.7-8.2-3.1-15.6-6.7-23.2c-10.5-22.8-31.3-44.3-54.5-54.2c-30.9-13.1-68.8-7-96.4,11.2C89.7,283.1,78.3,295,70.4,309
		c-4,7.1-7.1,14.7-9.1,22.6c-0.6,2.3-5.1,23.4-2.9,24.1c25.4,8.2,37.3,29.8,38.8,45.5c1.3,13.5-6.2,30.9-17.4,38.5
		c-10.5,7.1-31.5,12.1-42.3,3.4c-5.7-4.6-6.2-19.2,4.6-17.4c35,6,41-21.6,33.6-40.3c-13.8-33.7-54.9-17.9-67.4,8.1
		c-10,20.8-6.4,47,8,64.9c14.6,18.1,37.6,20.9,59.1,15.8c9.9-2.3,19.8-5.6,28.4-11.2c2.1-1.3,22-19.4,19.5-20.9
		c17.9,11.2,38.8,10.4,60.4,11.2c6.7,2.2,13.4,14.2,12.7,24.6c20.9-1.5,18.6-39.5,6-48.5c11.9-38.8-52.2-79-50-50.7
		c6.7,8.9,11.9,18.6,8.2,23.9c-9.6,13.4-22.4,5.9-34.5-1.2c-14.6-8.6-26.1-25-26.5-42.4c-0.4-15.6,8.2-29.9,18.2-41.9
		c11-13.3,30.1-19.4,47-19.9c23.4-0.7,40.4,14.1,50.6,34c4.7,9.1,7.9,18.9,10.7,28.8c0.9,3.2,7.2,19.8,5.4,22.5
		c-4.5,6.7-6.7,13.4-8.9,20.9c-2.2,6-3.7,12.7-3.7,20.1c0,32.8,29.1,60.4,63.4,60.4h0.7c33.6-0.7,61.9-27.6,61.9-60.4
		c0-17.9-8.9-34.3-21.6-45.5c6-56.7,31.3-102.2,94.7-76.8c25.4,10.4,44.7,67.1,7.5,105.1c-21.6,0.7-38-6.7-26.8-30.6
		c-11.2-26.1-46.2,20.1-26.8,52.9c-23.1,20.1-10.4,47.7,6,50c0.7-2.2-3-6.7-0.7-13.4c2.2-5.2,4.5-8.2,7.5-11.2
		c21.6-10.4,45.5-3,63.4-16.4c7.1,9.6,15.7,18.2,25.7,24.6c22.5,14.4,53.4,16.4,74.6-1.6C561.1,449.5,566.3,432.9,563.1,416.1z
		 M283.2,448.4c-14.8,0-26.9-12-26.9-26.9c0-14.8,12-26.9,26.9-26.9c14.8,0,26.9,12,26.9,26.9C310.1,436.3,298.1,448.4,283.2,448.4z
		"/>
</g>
</svg>
