<?xml version="1.0" encoding="utf-8"?>
<!-- Generator: Adobe Illustrator 24.1.2, SVG Export Plug-In . SVG Version: 6.00 Build 0)  -->
<svg version="1.1" id="Layer_1" xmlns="http://www.w3.org/2000/svg" xmlns:xlink="http://www.w3.org/1999/xlink" x="0px" y="0px"
	 viewBox="0 0 549 549" style="enable-background:new 0 0 549 549;" xml:space="preserve">
<style type="text/css">
	.st0{fill:#FFFFFF;}
	.st1{fill:#0211DE;}
</style>
<path class="st0" d="M388.2,306v-66.7c0,0-11.5-23.8-28.9-30.1s-47.2-18.3-47.2-18.3s-10.3,16.2-24.9,22c-14.5,5.8-40-10.9-40-10.9
	l-7.4-11.1l-62,27.3L165,234.4V306l6.4,5.7l55.6,1.7l150.4-1.1L388.2,306z"/>
<path class="st1" d="M46.9,481.6v35.6c0,7,5.7,12.8,12.8,12.8h83.5c7,0,12.8-5.7,12.8-12.8v-35.6c0-17-11.2-31.5-26.6-36.4
	c5.2-6.3,8.3-14.3,8.3-23c0-17.4-12.3-32-28.7-35.4V362c0-0.4,0.3-0.7,0.7-0.7h157.7v25.5c-16.4,3.5-28.7,18-28.7,35.4
	c0,8.7,3.1,16.8,8.3,23c-15.4,5-26.6,19.4-26.6,36.4v35.6c0,7,5.7,12.8,12.8,12.8h83.5c7,0,12.8-5.7,12.8-12.8v-6.6
	c0-4.2-3.4-7.5-7.5-7.5c-4.2,0-7.5,3.4-7.5,7.5v4.3h-8.6v-34.5c0-4.2-3.4-7.5-7.5-7.5s-7.5,3.4-7.5,7.5V515h-31.7v-34.5
	c0-4.2-3.4-7.5-7.5-7.5c-4.2,0-7.5,3.4-7.5,7.5V515h-8.6v-33.3c0-12.8,10.4-23.2,23.2-23.2h32.5c11,0,20.6,7.9,22.8,18.7
	c0.8,4.1,4.8,6.7,8.9,5.9c4.1-0.8,6.7-4.8,5.9-8.9c-2.8-13.8-12.9-24.7-25.8-28.9c5.2-6.3,8.3-14.3,8.3-23c0-17.4-12.3-32-28.7-35.4
	v-25.5h157.7c0.4,0,0.7,0.3,0.7,0.7v24.7c-16.4,3.5-28.7,18-28.7,35.4c0,8.7,3.1,16.8,8.3,23c-15.4,5-26.6,19.4-26.6,36.4v35.6
	c0,7,5.7,12.8,12.8,12.8h83.5c7,0,12.8-5.7,12.8-12.8v-35.6c0-17-11.2-31.5-26.6-36.4c5.2-6.3,8.3-14.3,8.3-23
	c0-17.4-12.3-32-28.7-35.4V362c0-8.7-7.1-15.8-15.8-15.8H282.5v-25.1h95.1c10.1,0,18.4-8.2,18.4-18.4v-54.8
	c0-31.8-27.3-43.3-28.4-43.8c0,0-0.1,0-0.1-0.1L308,181v-11.5c9.2-7.5,15.7-18.2,17.8-30.5c12.4-1.9,20.8-12.2,20.8-23.9
	c0-5.5-1.9-10.8-5.3-15v-18c0-29.1-18.7-54.4-46.5-62.8c-4-1.2-8.2,1-9.4,5c-1.2,4,1,8.2,5,9.4c21.5,6.5,35.9,26,35.9,48.4v8.2
	c-0.5-2.3-2.2-4.3-4.3-6.6c-1.8-2.1-6.4-6.9-12.2-13.1c-1.7-1.8-3.9-3.1-6.5-3.5c-2.8-0.5-5.7,0.1-8.2,1.7c-2.4,1.6-4.9,3-7.5,4.4
	c-15.7,8.4-33.7,12.4-50.5,11.2c-5-0.4-9.6,2.5-11.5,7.1c-0.2,0-0.4,0.1-0.6,0.1v-9.5c0-21.9,14-41.2,34.8-48.1
	c3.9-1.3,6.1-5.5,4.8-9.5c-1.3-3.9-5.6-6.1-9.5-4.8c-27,8.9-45.1,33.9-45.1,62.4v18.5c-3.4,4.2-5.3,9.2-5.3,14.5
	c0,11.8,8.6,22.1,20.8,23.9c2.1,12.7,9,23.7,18.8,31.2V181l-59.4,23c0,0-0.1,0-0.1,0.1c-0.1,0-0.2,0.1-0.5,0.2
	c-3.9,1.8-27.9,13.8-27.9,43.6v54.8c0,10.1,8.2,18.4,18.4,18.4h92.8v25.1H109.7c-8.7,0-15.7,7.1-15.7,15.8v24.7
	c-16.4,3.5-28.7,18-28.7,35.4c0,8.7,3.1,16.8,8.3,23C58.1,450.1,46.9,464.6,46.9,481.6z M296.1,422.1c0,11.7-9.5,21.2-21.2,21.2
	c-11.7,0-21.2-9.5-21.2-21.2s9.5-21.2,21.2-21.2C286.6,401,296.1,410.5,296.1,422.1z M487.9,481.6V515h-8.6v-34.5
	c0-4.2-3.4-7.5-7.5-7.5c-4.2,0-7.5,3.4-7.5,7.5V515h-31.7v-34.5c0-4.2-3.4-7.5-7.5-7.5s-7.5,3.4-7.5,7.5V515H409v-33.4
	c0-12.8,10.4-23.2,23.2-23.2h32.5C477.5,458.4,487.9,468.8,487.9,481.6z M469.6,422.1c0,11.7-9.5,21.2-21.2,21.2
	s-21.2-9.5-21.2-21.2s9.5-21.2,21.2-21.2C460.1,401,469.6,410.5,469.6,422.1z M276.2,165.8c-22.3,0-36.4-17.3-36.4-35.2v-31
	c21.1,0.7,42.9-5.5,60.9-16.6c5.7,6.1,9.1,9.7,10.7,11.5v36.1C311.4,149.8,295.7,165.8,276.2,165.8z M326.4,123.3v-16.2
	c3.1,1.6,5,4.7,5,8.1C331.4,118.5,329.6,121.7,326.4,123.3z M219.7,115.2c0-3.3,2.1-6,5-7.6v15.7
	C221.6,121.7,219.7,118.6,219.7,115.2z M276.2,180.8c5.8,0,11.5-1,16.7-2.8v4.2c0,4.7,2.6,9.1,6.6,11.5c-13.3,13.3-34,13.3-47.4,0.3
	c4.4-2.3,7.3-7,7.3-12v-3.8C264.6,179.9,270.5,180.8,276.2,180.8z M171.4,302.7v-54.8c0-21.2,17.9-29.4,19.1-29.9
	c50.9-19.7,26.2-10.2,46.5-18l3,3.2c19.6,20.8,51.7,20.8,71.3,0l3.2-3.5c30.1,11.6,19.7,7.6,47.3,18.3c10.7,4.6,19.1,16.2,19.1,29.9
	v54.8c0,1.8-1.5,3.3-3.3,3.3h-22.1v-48.8c0-4.2-3.4-7.5-7.5-7.5s-7.5,3.4-7.5,7.5V306H211.8v-48.8c0-4.2-3.4-7.5-7.5-7.5
	s-7.5,3.4-7.5,7.5V306h-22.1C172.8,306,171.4,304.6,171.4,302.7z M101.5,401c11.7,0,21.2,9.5,21.2,21.2s-9.5,21.2-21.2,21.2
	s-21.2-9.5-21.2-21.2S89.8,401,101.5,401z M62,481.6c0-12.8,10.4-23.2,23.2-23.2h32.5c12.8,0,23.2,10.4,23.2,23.2V515h-8.6v-34.5
	c0-4.2-3.4-7.5-7.5-7.5c-4.2,0-7.5,3.4-7.5,7.5V515H85.6v-34.5c0-4.2-3.4-7.5-7.5-7.5s-7.5,3.4-7.5,7.5V515H62V481.6z"/>
</svg>
