<?xml version="1.0" encoding="utf-8"?>
<!-- Generator: Adobe Illustrator 24.1.2, SVG Export Plug-In . SVG Version: 6.00 Build 0)  -->
<svg version="1.1" id="Capa_1" xmlns="http://www.w3.org/2000/svg" xmlns:xlink="http://www.w3.org/1999/xlink" x="0px" y="0px"
	 viewBox="0 0 512 512" style="enable-background:new 0 0 512 512;" xml:space="preserve">
<style type="text/css">
	.st0{fill:#0211DE;}
	.st1{fill:none;stroke:#0211DE;stroke-width:31;stroke-linecap:round;stroke-miterlimit:10;}
</style>
<g>
	<g>
		<path class="st0" d="M315,91H195c-8.3,0-15,6.7-15,15s6.7,15,15,15h120c8.3,0,15-6.7,15-15S323.3,91,315,91z"/>
	</g>
</g>
<g>
	<g>
		<path class="st0" d="M315,151H195c-8.3,0-15,6.7-15,15s6.7,15,15,15h120c8.3,0,15-6.7,15-15S323.3,151,315,151z"/>
	</g>
</g>
<g>
	<g>
		<path class="st0" d="M315,211H75c-8.3,0-15,6.7-15,15s6.7,15,15,15h240c8.3,0,15-6.7,15-15S323.3,211,315,211z"/>
	</g>
</g>
<g>
	<g>
		<path class="st0" d="M260.6,271H75c-8.3,0-15,6.7-15,15s6.7,15,15,15h185.6c8.3,0,15-6.7,15-15S268.9,271,260.6,271z"/>
	</g>
</g>
<g>
	<g>
		<path class="st0" d="M391,271V45c0-24.9-21.1-45-46-45H135c-3.8,0-7.7,1.5-10.6,4.4l-120,121C1.6,128.2,0,132.1,0,136v331
			c0,24.8,20.2,45,45,45c31.6,0,42.2,0,42.1,0c46,0,136.5,0,303.9,0c66.2,0,121-54.5,121-121C512,324.8,457.7,271,391,271z
			 M120,51.4V121H51L120,51.4z M45,482c-8.3,0-15-6.7-15-15V151h105c8.3,0,15-6.7,15-15V30h195c8.5,0,16,7,16,15v229.7
			c-31.8,8.1-58.7,28.7-74.8,56.3H75c-8.3,0-15,6.7-15,15s6.7,15,15,15h198.8c-2.5,9.6-3.8,19.6-3.8,30H75c-8.3,0-15,6.7-15,15
			s6.7,15,15,15h198.8c6.1,23.5,19.2,44.6,37.9,61H45z M391,482c-49.3,0-91-41.7-91-91c0-49.6,40.8-90,91-90s91,40.4,91,90
			C482,440.3,440.3,482,391,482z"/>
	</g>
</g>
<line class="st1" x1="340.4" y1="390.5" x2="441.6" y2="390.5"/>
</svg>
