<?xml version="1.0" encoding="utf-8"?>
<!-- Generator: Adobe Illustrator 24.1.2, SVG Export Plug-In . SVG Version: 6.00 Build 0)  -->
<svg version="1.1" id="Capa_1" xmlns="http://www.w3.org/2000/svg" xmlns:xlink="http://www.w3.org/1999/xlink" x="0px" y="0px"
	 viewBox="0 0 512 512" style="enable-background:new 0 0 512 512;" xml:space="preserve">
<style type="text/css">
	.st0{fill:#FFFFFF;}
</style>
<path class="st0" d="M497.5,122.2c-1,0-20.7-0.7-49.8-0.1V62.6c0-8.8-7.5-15.7-16.3-15c-57.9,4.8-131.5,30.4-175.4,77
	C212.1,78,138.5,52.4,80.6,47.6c-8.8-0.7-16.3,6.2-16.3,15v61.1c-16.5-0.6-32.1-1.1-48.8-1.6C7.1,121.9,0,128.7,0,137.2v274.2
	c0,7.9,6.1,14.5,14,15c59.9,4,160.2,4.5,236,36.8c6.8,2.9,12.8-0.4,11.8,0c75.8-32.3,176.1-32.8,236-36.8c7.9-0.5,14-7.1,14-15
	V137.2C512,129.1,505.6,122.4,497.5,122.2L497.5,122.2z M417.6,79.5v258.1c-43.4,9.7-98.5,30.4-146.5,74.4c0-13.3,0-251.7,0-258.8
	C304,112.1,366.4,87.3,417.6,79.5L417.6,79.5z M94.4,79.5c51.2,7.8,113.6,32.5,146.5,73.6V412c-48.1-44-103.1-64.7-146.5-74.4
	C94.4,337.6,94.4,79.5,94.4,79.5z M30.1,397.3V152.7c10.8,0.3,22.3,0.7,34.2,1.1v196c0,7.2,5.2,13.5,12.3,14.8
	c34.4,6.5,79.1,20.5,120.8,50.6C137.9,402,75.7,399.8,30.1,397.3L30.1,397.3z M481.9,397.3c-45.5,2.6-107.8,4.7-167.2,18
	c41.7-30.2,86.4-44.2,120.8-50.6c7.1-1.3,12.3-7.6,12.3-14.8V152.2c13.9-0.3,25.7-0.3,34.2-0.2L481.9,397.3L481.9,397.3z"/>
<path class="st0" d="M201.9,187.8c-11.7-8.1-31.8-18.1-53.2-21.7c-8.2-1.4-16,4.1-17.4,12.3s4.1,16,12.3,17.4
	c16.6,2.8,32.5,10.8,41,16.7c6.8,4.8,16.2,3.1,21-3.7C210.4,202,208.7,192.6,201.9,187.8L201.9,187.8z"/>
<path class="st0" d="M200.4,272.7c-10.7-6.6-31.7-18.1-51.7-21.4c-8.2-1.4-16,4.1-17.4,12.3c-1.4,8.2,4.1,16,12.3,17.4
	c15.6,2.6,33.9,13.1,41,17.4s16.4,2.1,20.7-5C209.7,286.3,207.5,277,200.4,272.7L200.4,272.7z"/>
<path class="st0" d="M327.3,212.6c8.6-6,24.5-13.9,41-16.7c8.2-1.4,13.7-9.2,12.3-17.4c-1.4-8.2-9.2-13.7-17.4-12.3
	c-21.5,3.6-41.6,13.6-53.2,21.7c-6.8,4.8-8.5,14.1-3.7,21C311.1,215.6,320.5,217.3,327.3,212.6L327.3,212.6z"/>
<path class="st0" d="M363.3,251.2c-20,3.4-41,14.9-51.7,21.4c-7.1,4.3-9.3,13.6-5,20.7s13.6,9.3,20.7,5c7.1-4.4,25.5-14.8,41-17.4
	c8.2-1.4,13.7-9.2,12.3-17.4C379.3,255.4,371.5,249.8,363.3,251.2z"/>
</svg>
