<?xml version="1.0" encoding="utf-8"?>
<!-- Generator: Adobe Illustrator 24.1.2, SVG Export Plug-In . SVG Version: 6.00 Build 0)  -->
<svg version="1.1" id="Capa_1" xmlns="http://www.w3.org/2000/svg" xmlns:xlink="http://www.w3.org/1999/xlink" x="0px" y="0px"
	 viewBox="0 0 431.1 572.6" style="enable-background:new 0 0 431.1 572.6;" xml:space="preserve">
<style type="text/css">
	.st0{fill:#FFFFFF;}
	.st1{fill:none;stroke:#0211DE;stroke-width:25;stroke-miterlimit:10;}
	.st2{opacity:0.75;}
	.st3{fill:#E2E2E2;}
	.st4{fill:none;stroke:#E2E2E2;stroke-width:25;stroke-miterlimit:10;}
	.st5{fill:#0211DE;stroke:#FFFFFF;stroke-width:25;stroke-miterlimit:10;}
</style>
<g>
	
		<image style="overflow:visible;opacity:0.75;" width="374" height="394" xlink:href="69E7D776.png"  transform="matrix(1 0 0 1 34.1489 100)">
	</image>
	<g>
		<polyline class="st0" points="54.6,471.5 54.6,176 54.6,176.1 54.6,121 373.5,121 373.5,176.1 373.5,471.5 373.5,416.4 
			54.6,416.4 54.6,471.5 		"/>
		<polyline class="st1" points="54.6,471.5 54.6,176 54.6,176.1 54.6,121 373.5,121 373.5,176.1 373.5,471.5 373.5,416.4 
			54.6,416.4 54.6,471.5 		"/>
	</g>
</g>
<g>
	
		<image style="overflow:visible;opacity:0.75;" width="156" height="73" xlink:href="69E7D775.png"  transform="matrix(1 0 0 1 218.1489 3)">
	</image>
	<g>
		<path class="st0" d="M238.7,51V40.8c0-9.1,7.4-16.4,16.4-16.4h68c9.1,0,16.4,7.4,16.4,16.4V51"/>
		<path class="st1" d="M238.7,51V40.8c0-9.1,7.4-16.4,16.4-16.4h68c9.1,0,16.4,7.4,16.4,16.4V51"/>
	</g>
</g>
<g>
	<g class="st2">
		<path class="st3" d="M380.5,506.4"/>
		<path class="st4" d="M380.5,506.4"/>
	</g>
	<g>
		<path class="st0" d="M373.5,499.4"/>
		<path class="st1" d="M373.5,499.4"/>
	</g>
</g>
<g>
	
		<image style="overflow:visible;opacity:0.75;" width="423" height="114" xlink:href="69E7D772.png"  transform="matrix(1 0 0 1 11.1489 457)">
	</image>
	<g>
		<path class="st0" d="M60.9,536.4h309.3c16,0,29-13,29-29v0c0-16-13-29-29-29H60.9c-16,0-29,13-29,29v0
			C31.9,523.4,44.9,536.4,60.9,536.4z"/>
		<path class="st1" d="M60.9,536.4h309.3c16,0,29-13,29-29v0c0-16-13-29-29-29H60.9c-16,0-29,13-29,29v0
			C31.9,523.4,44.9,536.4,60.9,536.4z"/>
	</g>
</g>
<g>
	
		<image style="overflow:visible;opacity:0.75;" width="423" height="114" xlink:href="69E7D77D.png"  transform="matrix(1 0 0 1 11.1489 42)">
	</image>
	<g>
		<path class="st0" d="M60.9,121h309.3c16,0,29-13,29-29v0c0-16-13-29-29-29H60.9c-16,0-29,13-29,29v0C31.9,108,44.9,121,60.9,121z"
			/>
		<path class="st1" d="M60.9,121h309.3c16,0,29-13,29-29v0c0-16-13-29-29-29H60.9c-16,0-29,13-29,29v0C31.9,108,44.9,121,60.9,121z"
			/>
	</g>
</g>
<path class="st5" d="M286.2,289.8c0-40.1-69.7-116.9-69.7-116.9s-69.7,76.8-69.7,116.9s31.2,72.6,69.7,72.6S286.2,329.9,286.2,289.8
	z"/>
</svg>
