<?xml version="1.0" encoding="utf-8"?>
<!-- Generator: Adobe Illustrator 24.1.2, SVG Export Plug-In . SVG Version: 6.00 Build 0)  -->
<svg version="1.1" id="Capa_1" xmlns="http://www.w3.org/2000/svg" xmlns:xlink="http://www.w3.org/1999/xlink" x="0px" y="0px"
	 viewBox="0 0 512 512" style="enable-background:new 0 0 512 512;" xml:space="preserve">
<style type="text/css">
	.st0{fill:#2ACC9A;}
	.st1{fill:#FFFFFF;}
</style>
<rect x="192" y="229.9" class="st0" width="111" height="111"/>
<g>
	<path class="st1" d="M497,121H383V32c0-8.3-6.7-15-15-15H15C6.7,17,0,23.7,0,32v388c0,41.4,33.6,75,75,75h362c41.4,0,75-33.6,75-75
		V136C512,127.7,505.3,121,497,121z M75,465c-24.8,0-45-20.2-45-45V47h323c0,396.5-0.2,374.4,0.3,380.1c1.3,13.9,6.5,27,14.7,37.9
		H75z M482,420c0,24.8-20.2,45-45,45c-3.4,0-5.7,0-9,0c-24.8,0-45-20.2-45-45V151h99V420z"/>
	<path class="st1" d="M304,89H80c-8.3,0-15,6.7-15,15s6.7,15,15,15h224c8.3,0,15-6.7,15-15S312.3,89,304,89z"/>
	<path class="st1" d="M304,153H80c-8.3,0-15,6.7-15,15s6.7,15,15,15h224c8.3,0,15-6.7,15-15S312.3,153,304,153z"/>
	<path class="st1" d="M304,393H80c-8.3,0-15,6.7-15,15s6.7,15,15,15h224c8.3,0,15-6.7,15-15S312.3,393,304,393z"/>
	<path class="st1" d="M304,217H192c-8.3,0-15,6.7-15,15v112c0,8.3,6.7,15,15,15h112c8.3,0,15-6.7,15-15V232
		C319,223.7,312.3,217,304,217z M289,329h-82v-82h82V329z"/>
	<path class="st1" d="M80,271h48c8.3,0,15-6.7,15-15s-6.7-15-15-15H80c-8.3,0-15,6.7-15,15S71.7,271,80,271z"/>
	<path class="st1" d="M80,335h48c8.3,0,15-6.7,15-15s-6.7-15-15-15H80c-8.3,0-15,6.7-15,15S71.7,335,80,335z"/>
</g>
</svg>
