<?xml version="1.0" encoding="utf-8"?>
<!-- Generator: Adobe Illustrator 25.4.1, SVG Export Plug-In . SVG Version: 6.00 Build 0)  -->
<svg version="1.1" id="Capa_1" xmlns="http://www.w3.org/2000/svg" xmlns:xlink="http://www.w3.org/1999/xlink" x="0px" y="0px"
	 viewBox="0 0 608 608" style="enable-background:new 0 0 608 608;" xml:space="preserve">
<style type="text/css">
	.st0{fill:#2ACC9A;}
	.st1{fill:#FFFFFF;stroke:#FFFFFF;stroke-width:12;stroke-miterlimit:10;}
</style>
<rect x="240" y="277.9" class="st0" width="111" height="111"/>
<g>
	
		<image style="overflow:visible;opacity:0.37;" width="632" height="598" xlink:href="2347971D.png"  transform="matrix(1 0 0 1 -12 5)">
	</image>
	<g>
		<g>
			<g>
				<g>
					<path class="st1" d="M545,169H431V80c0-8.3-6.7-15-15-15H63c-8.3,0-15,6.7-15,15v388c0,41.4,33.6,75,75,75h362
						c41.4,0,75-33.6,75-75V184C560,175.7,553.3,169,545,169z M123,513c-24.8,0-45-20.2-45-45V95h323c0,396.5-0.2,374.4,0.3,380.1
						c1.3,13.9,6.5,27,14.7,37.9H123z M530,468c0,24.8-20.2,45-45,45c-3.4,0-5.7,0-9,0c-24.8,0-45-20.2-45-45V199h99V468z"/>
					<path class="st1" d="M352,137H128c-8.3,0-15,6.7-15,15s6.7,15,15,15h224c8.3,0,15-6.7,15-15S360.3,137,352,137z"/>
					<path class="st1" d="M352,201H128c-8.3,0-15,6.7-15,15s6.7,15,15,15h224c8.3,0,15-6.7,15-15S360.3,201,352,201z"/>
					<path class="st1" d="M352,441H128c-8.3,0-15,6.7-15,15s6.7,15,15,15h224c8.3,0,15-6.7,15-15S360.3,441,352,441z"/>
					<path class="st1" d="M352,265H240c-8.3,0-15,6.7-15,15v112c0,8.3,6.7,15,15,15h112c8.3,0,15-6.7,15-15V280
						C367,271.7,360.3,265,352,265z M337,377h-82v-82h82V377z"/>
					<path class="st1" d="M128,319h48c8.3,0,15-6.7,15-15s-6.7-15-15-15h-48c-8.3,0-15,6.7-15,15S119.7,319,128,319z"/>
					<path class="st1" d="M128,383h48c8.3,0,15-6.7,15-15s-6.7-15-15-15h-48c-8.3,0-15,6.7-15,15S119.7,383,128,383z"/>
				</g>
			</g>
		</g>
	</g>
</g>
</svg>
