<?xml version="1.0" encoding="utf-8"?>
<!-- Generator: Adobe Illustrator 24.1.2, SVG Export Plug-In . SVG Version: 6.00 Build 0)  -->
<svg version="1.1" id="Capa_1" xmlns="http://www.w3.org/2000/svg" xmlns:xlink="http://www.w3.org/1999/xlink" x="0px" y="0px"
	 viewBox="0 0 512 512" style="enable-background:new 0 0 512 512;" xml:space="preserve">
<style type="text/css">
	.st0{fill:#0211DE;}
</style>
<g>
	<path class="st0" d="M457,101H356.8l-9.7-29.2C340.9,53.4,323.8,41,304.4,41h-96.8c-19.4,0-36.6,12.4-42.7,30.8l-9.7,29.2H131V76
		c0-19.3-15.7-35-35-35H76c-19.3,0-35,15.7-35,35v26.8C17.4,109,0,130.5,0,156v260c0,30.3,24.7,55,55,55h402c30.3,0,55-24.7,55-55
		V156C512,125.7,487.3,101,457,101z M71,76c0-2.8,2.2-5,5-5h20c2.8,0,5,2.2,5,5v25H71V76z M482,416c0,13.8-11.2,25-25,25H55
		c-13.8,0-25-11.2-25-25V156c0-13.8,11.2-25,25-25h111c6.5,0,12.2-4.1,14.2-10.3l13.2-39.5c2-6.1,7.8-10.3,14.2-10.3h96.8
		c6.5,0,12.2,4.1,14.2,10.3l13.2,39.5c2,6.1,7.8,10.3,14.2,10.3h111c13.8,0,25,11.2,25,25V416z"/>
	<circle class="st0" cx="436" cy="176" r="15"/>
	<path class="st0" d="M106,161H76c-8.3,0-15,6.7-15,15s6.7,15,15,15h30c8.3,0,15-6.7,15-15S114.3,161,106,161z"/>
	<g>
		<path class="st0" d="M256,411c-74.4,0-135-60.6-135-135s60.6-135,135-135s135,60.6,135,135S330.4,411,256,411z M256,171
			c-57.9,0-105,47.1-105,105s47.1,105,105,105s105-47.1,105-105S313.9,171,256,171z"/>
	</g>
	<g>
		<path class="st0" d="M256,351c-41.4,0-75-33.6-75-75s33.6-75,75-75s75,33.6,75,75S297.4,351,256,351z M256,231
			c-24.8,0-45,20.2-45,45s20.2,45,45,45s45-20.2,45-45S280.8,231,256,231z"/>
	</g>
</g>
</svg>
