<?xml version="1.0" encoding="utf-8"?>
<!-- Generator: Adobe Illustrator 25.4.1, SVG Export Plug-In . SVG Version: 6.00 Build 0)  -->
<svg version="1.1" id="Layer_1" xmlns="http://www.w3.org/2000/svg" xmlns:xlink="http://www.w3.org/1999/xlink" x="0px" y="0px"
	 viewBox="0 0 7.2 7.2" style="enable-background:new 0 0 7.2 7.2;" xml:space="preserve">
<style type="text/css">
	.st0{fill-rule:evenodd;clip-rule:evenodd;fill:#E4E4FB;}
</style>
<desc>Created with Sketch.</desc>
<desc>Created with Sketch.</desc>
<desc>Created with Sketch.</desc>
<desc>Created with Sketch.</desc>
<desc>Created with Sketch.</desc>
<desc>Created with Sketch.</desc>
<desc>Created with Sketch.</desc>
<desc>Created with Sketch.</desc>
<desc>Created with Sketch.</desc>
<desc>Created with Sketch.</desc>
<desc>Created with Sketch.</desc>
<desc>Created with Sketch.</desc>
<desc>Created with Sketch.</desc>
<desc>Created with Sketch.</desc>
<desc>Created with Sketch.</desc>
<desc>Created with Sketch.</desc>
<desc>Created with Sketch.</desc>
<desc>Created with Sketch.</desc>
<desc>Created with Sketch.</desc>
<desc>Created with Sketch.</desc>
<desc>Created with Sketch.</desc>
<desc>Created with Sketch.</desc>
<desc>Created with Sketch.</desc>
<desc>Created with Sketch.</desc>
<desc>Created with Sketch.</desc>
<desc>Created with Sketch.</desc>
<desc>Created with Sketch.</desc>
<desc>Created with Sketch.</desc>
<desc>Created with Sketch.</desc>
<desc>Created with Sketch.</desc>
<desc>Created with Sketch.</desc>
<desc>Created with Sketch.</desc>
<desc>Created with Sketch.</desc>
<desc>Created with Sketch.</desc>
<desc>Created with Sketch.</desc>
<desc>Created with Sketch.</desc>
<desc>Created with Sketch.</desc>
<desc>Created with Sketch.</desc>
<desc>Created with Sketch.</desc>
<desc>Created with Sketch.</desc>
<desc>Created with Sketch.</desc>
<desc>Created with Sketch.</desc>
<desc>Created with Sketch.</desc>
<desc>Created with Sketch.</desc>
<desc>Created with Sketch.</desc>
<desc>Created with Sketch.</desc>
<desc>Created with Sketch.</desc>
<desc>Created with Sketch.</desc>
<desc>Created with Sketch.</desc>
<desc>Created with Sketch.</desc>
<desc>Created with Sketch.</desc>
<desc>Created with Sketch.</desc>
<desc>Created with Sketch.</desc>
<desc>Created with Sketch.</desc>
<desc>Created with Sketch.</desc>
<desc>Created with Sketch.</desc>
<desc>Created with Sketch.</desc>
<desc>Created with Sketch.</desc>
<desc>Created with Sketch.</desc>
<desc>Created with Sketch.</desc>
<desc>Created with Sketch.</desc>
<desc>Created with Sketch.</desc>
<desc>Created with Sketch.</desc>
<desc>Created with Sketch.</desc>
<circle class="st0" cx="0.5" cy="6.8" r="0.2"/>
<circle class="st0" cx="1.3" cy="6.8" r="0.2"/>
<circle class="st0" cx="2.2" cy="6.8" r="0.2"/>
<circle class="st0" cx="3.1" cy="6.8" r="0.2"/>
<circle class="st0" cx="4" cy="6.8" r="0.2"/>
<circle class="st0" cx="4.9" cy="6.8" r="0.2"/>
<circle class="st0" cx="5.8" cy="6.8" r="0.2"/>
<circle class="st0" cx="6.7" cy="6.8" r="0.2"/>
<desc>Created with Sketch.</desc>
<circle class="st0" cx="0.5" cy="5.9" r="0.2"/>
<circle class="st0" cx="1.3" cy="5.9" r="0.2"/>
<circle class="st0" cx="2.2" cy="5.9" r="0.2"/>
<circle class="st0" cx="3.1" cy="5.9" r="0.2"/>
<circle class="st0" cx="4" cy="5.9" r="0.2"/>
<circle class="st0" cx="4.9" cy="5.9" r="0.2"/>
<circle class="st0" cx="5.8" cy="5.9" r="0.2"/>
<circle class="st0" cx="6.7" cy="5.9" r="0.2"/>
<desc>Created with Sketch.</desc>
<circle class="st0" cx="0.5" cy="5" r="0.2"/>
<circle class="st0" cx="1.3" cy="5" r="0.2"/>
<circle class="st0" cx="2.2" cy="5" r="0.2"/>
<circle class="st0" cx="3.1" cy="5" r="0.2"/>
<circle class="st0" cx="4" cy="5" r="0.2"/>
<circle class="st0" cx="4.9" cy="5" r="0.2"/>
<circle class="st0" cx="5.8" cy="5" r="0.2"/>
<circle class="st0" cx="6.7" cy="5" r="0.2"/>
<desc>Created with Sketch.</desc>
<circle class="st0" cx="0.5" cy="4" r="0.2"/>
<circle class="st0" cx="1.3" cy="4" r="0.2"/>
<circle class="st0" cx="2.2" cy="4" r="0.2"/>
<circle class="st0" cx="3.1" cy="4" r="0.2"/>
<circle class="st0" cx="4" cy="4" r="0.2"/>
<circle class="st0" cx="4.9" cy="4" r="0.2"/>
<circle class="st0" cx="5.8" cy="4" r="0.2"/>
<circle class="st0" cx="6.7" cy="4" r="0.2"/>
<desc>Created with Sketch.</desc>
<circle class="st0" cx="0.5" cy="3.1" r="0.2"/>
<circle class="st0" cx="1.3" cy="3.1" r="0.2"/>
<circle class="st0" cx="2.2" cy="3.1" r="0.2"/>
<circle class="st0" cx="3.1" cy="3.1" r="0.2"/>
<circle class="st0" cx="4" cy="3.1" r="0.2"/>
<circle class="st0" cx="4.9" cy="3.1" r="0.2"/>
<circle class="st0" cx="5.8" cy="3.1" r="0.2"/>
<circle class="st0" cx="6.7" cy="3.1" r="0.2"/>
<desc>Created with Sketch.</desc>
<circle class="st0" cx="0.5" cy="2.2" r="0.2"/>
<circle class="st0" cx="1.3" cy="2.2" r="0.2"/>
<circle class="st0" cx="2.2" cy="2.2" r="0.2"/>
<circle class="st0" cx="3.1" cy="2.2" r="0.2"/>
<circle class="st0" cx="4" cy="2.2" r="0.2"/>
<circle class="st0" cx="4.9" cy="2.2" r="0.2"/>
<circle class="st0" cx="5.8" cy="2.2" r="0.2"/>
<circle class="st0" cx="6.7" cy="2.2" r="0.2"/>
<desc>Created with Sketch.</desc>
<circle class="st0" cx="0.5" cy="1.3" r="0.2"/>
<circle class="st0" cx="1.3" cy="1.3" r="0.2"/>
<circle class="st0" cx="2.2" cy="1.3" r="0.2"/>
<circle class="st0" cx="3.1" cy="1.3" r="0.2"/>
<circle class="st0" cx="4" cy="1.3" r="0.2"/>
<circle class="st0" cx="4.9" cy="1.3" r="0.2"/>
<circle class="st0" cx="5.8" cy="1.3" r="0.2"/>
<circle class="st0" cx="6.7" cy="1.3" r="0.2"/>
<circle class="st0" cx="0.5" cy="0.4" r="0.2"/>
<circle class="st0" cx="1.3" cy="0.4" r="0.2"/>
<circle class="st0" cx="2.2" cy="0.4" r="0.2"/>
<circle class="st0" cx="3.1" cy="0.4" r="0.2"/>
<circle class="st0" cx="4" cy="0.4" r="0.2"/>
<circle class="st0" cx="4.9" cy="0.4" r="0.2"/>
<circle class="st0" cx="5.8" cy="0.4" r="0.2"/>
<circle class="st0" cx="6.7" cy="0.4" r="0.2"/>
<desc>Created with Sketch.</desc>
</svg>
